<svg width="152" height="152" fill="none" xmlns="http://www.w3.org/2000/svg"><path fill="#fff" d="M0 0h152v152H0z"/><path d="M66.022 39.865v67.486c0 6.142.055 12.202.165 18.178h40.425l10.625-21.997 3.736-.581-1.827 29.717-.498.581a3450.24 3450.24 0 0 0-39.76-.249H58.053c-6.696 0-13.558.083-20.586.249l-.332-3.569 10.21-3.072c1.383-.387 2.13-1.245 2.24-2.573.056-2.213.084-4.676.084-7.388.055-2.766.083-5.81.083-9.13v-67.32c0-2.822-.028-5.368-.083-7.637 0-2.268-.028-4.316-.083-6.142-.055-1.439-.72-2.38-1.992-2.822L37.3 20.358l-.166-3.569c7.138.221 14 .332 20.586.332 6.64 0 13.502-.11 20.586-.332l.332 3.57-10.293 3.07c-1.328.333-2.048 1.19-2.159 2.574-.055 1.937-.11 4.759-.165 8.467v5.395Z" fill="#000"/></svg>