<svg width="90" height="21" viewBox="0 0 90 21" fill="none" xmlns="http://www.w3.org/2000/svg">
<path fill-rule="evenodd" clip-rule="evenodd" d="M8.44027 17.4466L8.41146 17.3883L-6.10352e-05 12L2.99582 9.78641L5.47319 0L8.46908 2.21359L18.465 1.57282L17.3127 5.12621L20.9999 14.534H17.2839L17.2551 14.5631L9.56373 21L8.44027 17.4466Z" fill="black"/>
<path fill-rule="evenodd" clip-rule="evenodd" d="M8.44127 17.3548V17.413L14.2602 14.5004L15.3548 14.5296H17.2561H17.2849L17.1697 13.6558L16.3631 8.03441L17.3137 5.15091H17.2849L17.1985 5.12179L10.9186 4.01499L8.47008 2.20917V2.23829L7.7211 3.63635L5.44538 8.00528L3.11205 9.72373L2.99683 9.81111L7.51946 14.5004L8.44127 17.3548Z" fill="white"/>
<path d="M32.7359 13.508H31.4479C31.5319 14.432 31.8679 15.132 32.4839 15.566C33.0859 16.014 33.7999 16.252 34.5979 16.252C35.8439 16.252 36.7679 15.888 37.3419 15.188C37.9019 14.488 38.1959 13.662 38.1959 12.738C38.1959 11.856 37.8739 11.114 37.2579 10.54C36.6279 9.952 35.8719 9.672 34.9759 9.672C34.4999 9.672 34.0659 9.742 33.7019 9.896C33.5059 9.98 33.2819 10.12 33.0579 10.288L33.4779 7.558H37.6359V6.382H32.5539L31.8119 11.646L32.8759 11.702C33.0859 11.408 33.3379 11.184 33.6459 11.03C33.9539 10.862 34.3179 10.778 34.7379 10.778C35.3259 10.778 35.8299 10.96 36.2499 11.338C36.6559 11.716 36.8659 12.234 36.8659 12.92C36.8659 13.494 36.6839 13.998 36.3339 14.474C35.9839 14.936 35.4519 15.16 34.7239 15.16C34.3319 15.16 33.9959 15.104 33.7019 14.964C33.1419 14.698 32.8059 14.208 32.7359 13.508ZM44.7197 14.656V15.958C44.8177 16.042 44.9717 16.112 45.1677 16.168C45.3637 16.224 45.5597 16.252 45.7697 16.252C46.1617 16.252 46.4977 16.21 46.7777 16.098C47.0577 16 47.3097 15.832 47.5337 15.608C47.7577 15.384 47.9537 15.104 48.1497 14.74C48.3317 14.39 48.5417 13.956 48.7657 13.466L51.9157 5.948H50.4037L47.8837 12.612L44.5657 5.948H42.9977L47.1137 13.998C47.0717 14.124 47.0297 14.25 46.9597 14.376C46.8897 14.502 46.7917 14.6 46.6937 14.698C46.5817 14.796 46.4557 14.866 46.3157 14.922C46.1617 14.978 45.9797 15.006 45.7837 15.006C45.6857 15.006 45.5877 14.992 45.4897 14.978L45.1817 14.894C45.0837 14.852 44.9997 14.824 44.9157 14.782C44.8317 14.74 44.7617 14.698 44.7197 14.656ZM58.9576 7.124V5.948H53.0496V16H54.3936V7.124H58.9576ZM62.9134 7.124H66.4974V16H67.8414V5.948H61.5974C61.5974 6.424 61.5834 6.914 61.5834 7.418L61.5694 8.944C61.5554 9.462 61.5414 9.952 61.5134 10.456C61.4994 10.946 61.4574 11.408 61.4154 11.856C61.3734 12.29 61.3174 12.696 61.2474 13.074C61.1774 13.452 61.0794 13.774 60.9814 14.054C60.8694 14.32 60.7294 14.544 60.5894 14.684C60.4354 14.838 60.2534 14.922 60.0434 14.922C59.8894 14.922 59.7914 14.908 59.7214 14.894C59.6374 14.88 59.5674 14.852 59.5254 14.838V16.084C59.6234 16.112 59.7354 16.14 59.8194 16.154C59.9034 16.182 60.0154 16.196 60.1414 16.196C60.5754 16.196 60.9534 16.07 61.2614 15.846C61.5554 15.622 61.8074 15.3 62.0174 14.88C62.2134 14.474 62.3814 13.984 62.4934 13.41C62.6194 12.85 62.7034 12.234 62.7734 11.562C62.8294 10.89 62.8574 10.176 62.8854 9.42C62.8994 8.678 62.9134 7.908 62.9134 7.124ZM79.2307 10.974C79.2307 10.19 79.1187 9.49 78.8947 8.832C78.6707 8.188 78.3627 7.628 77.9427 7.166C77.5227 6.704 77.0187 6.34 76.4027 6.088C75.8007 5.822 75.1007 5.696 74.3307 5.696C73.5607 5.696 72.8747 5.822 72.2587 6.088C71.6567 6.34 71.1387 6.704 70.7187 7.166C70.3127 7.628 69.9907 8.188 69.7667 8.832C69.5427 9.49 69.4307 10.19 69.4307 10.974C69.4307 11.408 69.4727 11.842 69.5567 12.262C69.6547 12.696 69.7807 13.102 69.9627 13.494C70.1307 13.886 70.3547 14.25 70.6347 14.586C70.9007 14.922 71.2227 15.216 71.5727 15.454C71.9367 15.706 72.3567 15.902 72.8047 16.042C73.2667 16.182 73.7847 16.252 74.3307 16.252C74.8907 16.252 75.3947 16.182 75.8567 16.042C76.3187 15.902 76.7247 15.706 77.0887 15.454C77.4527 15.216 77.7747 14.922 78.0407 14.586C78.3067 14.25 78.5167 13.886 78.6987 13.494C78.8807 13.102 79.0067 12.696 79.0907 12.262C79.1887 11.842 79.2307 11.408 79.2307 10.974ZM77.8867 10.974C77.8867 11.59 77.8167 12.15 77.6627 12.64C77.5227 13.144 77.3127 13.578 77.0187 13.942C76.7247 14.306 76.3467 14.572 75.8987 14.782C75.4507 14.978 74.9327 15.076 74.3307 15.076C73.7287 15.076 73.2107 14.978 72.7627 14.782C72.3287 14.572 71.9507 14.306 71.6567 13.942C71.3627 13.578 71.1387 13.144 70.9847 12.64C70.8447 12.15 70.7747 11.59 70.7747 10.974C70.7747 10.386 70.8587 9.826 71.0127 9.322C71.1667 8.818 71.4047 8.384 71.7127 8.02C72.0067 7.656 72.3847 7.376 72.8187 7.18C73.2667 6.97 73.7707 6.872 74.3307 6.872C74.8907 6.872 75.3947 6.97 75.8427 7.18C76.2767 7.376 76.6547 7.656 76.9627 8.02C77.2567 8.384 77.4947 8.818 77.6487 9.322C77.8027 9.826 77.8867 10.386 77.8867 10.974ZM84.4152 5.948H80.8172V16H85.0592C85.4932 16 85.8852 15.958 86.2212 15.874C86.5572 15.79 86.8512 15.678 87.1172 15.524C87.3692 15.384 87.5932 15.216 87.7752 15.02C87.9572 14.824 88.1112 14.614 88.2372 14.39C88.3492 14.18 88.4332 13.956 88.4892 13.704C88.5312 13.48 88.5592 13.256 88.5592 13.032C88.5592 12.654 88.5032 12.318 88.3912 12.038C88.2652 11.772 88.1252 11.534 87.9572 11.338C87.7752 11.142 87.5792 10.988 87.3692 10.862C87.1592 10.75 86.9492 10.652 86.7392 10.582C86.9912 10.47 87.2012 10.344 87.3692 10.162C87.5512 10.008 87.6772 9.826 87.7892 9.63C87.8872 9.434 87.9572 9.238 88.0132 9.042C88.0552 8.846 88.0832 8.65 88.0832 8.482C88.0832 8.146 88.0272 7.852 87.9432 7.586C87.8452 7.334 87.7192 7.096 87.5512 6.9C87.3832 6.704 87.2012 6.536 86.9912 6.41C86.7672 6.284 86.5292 6.186 86.2912 6.116C86.0252 6.046 85.7452 6.004 85.4512 5.976C85.1572 5.962 84.8072 5.948 84.4152 5.948ZM84.6672 10.232H82.1612V7.124H84.6672C85.0452 7.124 85.3672 7.166 85.6332 7.236C85.8992 7.292 86.1232 7.39 86.2772 7.53C86.4452 7.656 86.5572 7.81 86.6412 7.992C86.7112 8.174 86.7392 8.384 86.7392 8.622C86.7392 8.846 86.7112 9.056 86.6692 9.252C86.6132 9.448 86.5152 9.616 86.3752 9.756C86.2212 9.896 86.0112 10.022 85.7452 10.106C85.4652 10.19 85.1152 10.232 84.6672 10.232ZM84.8632 14.824H82.1612V11.324H84.8632C85.2972 11.324 85.6612 11.366 85.9692 11.45C86.2632 11.534 86.5012 11.646 86.6972 11.8C86.8792 11.954 87.0052 12.15 87.0892 12.36C87.1732 12.57 87.2152 12.808 87.2152 13.074C87.2152 13.34 87.1732 13.578 87.0892 13.788C87.0052 13.998 86.8792 14.194 86.6972 14.334C86.5012 14.502 86.2632 14.614 85.9692 14.698C85.6612 14.782 85.2972 14.824 84.8632 14.824Z" fill="black"/>
</svg>
